<svg width="97" height="26" viewBox="0 0 97 26" fill="none" xmlns="http://www.w3.org/2000/svg">
<path d="M0.0566406 0.215332H96.6785V25.5367H0.0566406V0.215332Z" fill="#D40000"/>
<path d="M4.18801 4.07397H18.1595V5.89009L6.91433 19.6734H18.4343V21.6776H3.91321V19.8616L15.1584 6.07818H4.18801V4.07397ZM27.8836 6.42067L24.6198 15.1827H31.1596L27.8836 6.42067ZM26.5242 4.07397H29.2528L36.0313 21.6776H33.5291L31.9117 17.1628H23.8918L22.2719 21.6776H19.7336L26.5242 4.07397ZM41.0211 13.2701V19.7193H44.8804C46.1749 19.7193 47.1342 19.454 47.7586 18.9233C48.3829 18.3928 48.6939 17.58 48.6939 16.4899C48.6939 15.3901 48.3829 14.5773 47.7586 14.054C47.1342 13.5331 46.1749 13.2701 44.8804 13.2701H41.0211ZM41.0211 6.02996V11.3359H44.5839C45.7602 11.3359 46.6353 11.1164 47.2114 10.6823C47.7875 10.2458 48.0744 9.58011 48.0744 8.68528C48.0744 7.79776 47.7851 7.13211 47.2114 6.69318C46.6353 6.25425 45.7602 6.0323 44.5839 6.0323H41.0211V6.02996ZM38.6154 4.07397H44.7623C46.5967 4.07397 48.0117 4.45024 49.0024 5.20511C49.9956 5.95998 50.4897 7.03323 50.4897 8.42487C50.4897 9.50046 50.2367 10.3591 49.728 10.9959C49.2194 11.6325 48.4721 12.0305 47.4887 12.1872C48.6722 12.438 49.5906 12.9614 50.2463 13.7597C50.9019 14.558 51.2298 15.5542 51.2298 16.7479C51.2298 18.3204 50.6898 19.5336 49.6099 20.3922C48.53 21.2484 46.992 21.6776 45.001 21.6776H38.6154V4.07397ZM57.4947 13.2701V19.7193H61.3565C62.651 19.7193 63.6103 19.454 64.2323 18.9233C64.8566 18.3928 65.1675 17.58 65.1675 16.4899C65.1675 15.3901 64.8566 14.5773 64.2323 14.054C63.6079 13.5331 62.6485 13.2701 61.3565 13.2701H57.4947ZM57.4947 6.02996V11.3359H61.0575C62.2339 11.3359 63.1089 11.1164 63.685 10.6823C64.2612 10.2458 64.548 9.58011 64.548 8.68528C64.548 7.79776 64.2612 7.13211 63.685 6.69318C63.1089 6.25425 62.2339 6.0323 61.0575 6.0323H57.4947V6.02996ZM55.089 4.07397H61.236C63.0704 4.07397 64.4854 4.45024 65.4761 5.20511C66.4692 5.95998 66.9658 7.03323 66.9658 8.42487C66.9658 9.50046 66.7127 10.3591 66.2041 10.9959C65.6955 11.6325 64.9482 12.0305 63.9646 12.1872C65.1482 12.438 66.0667 12.9614 66.7223 13.7597C67.378 14.558 67.7059 15.5542 67.7059 16.7479C67.7059 18.3204 67.1659 19.5336 66.0859 20.3922C65.006 21.2484 63.4681 21.6776 61.477 21.6776H55.089V4.07397ZM78.5292 4.07397H81.176L85.3582 10.3953L89.5816 4.07397H92.1388L86.6334 12.3199L92.8236 21.6776H90.1773L85.3052 14.312L80.3853 21.6776H77.8277L84.0324 12.3874L78.5292 4.07397ZM71.5603 4.07397H73.966V21.6776H71.5603V4.07397Z" fill="white"/>
</svg>

